<svg width="229" height="229" viewBox="0 0 229 229" fill="none" xmlns="http://www.w3.org/2000/svg">
<path fill-rule="evenodd" clip-rule="evenodd" d="M84.3913 151.235C55.2745 89.8563 132.18 32.1469 183.598 76.669C196.503 87.8399 204.367 104.455 204.891 121.554C205.617 146.436 191.462 170.593 168.838 181.32C146.093 192.128 118.589 187.813 99.7159 171.48C93.1828 165.794 88.1015 158.978 84.3913 151.235ZM80.2779 183.861C81.4877 185.03 82.7782 186.2 84.0687 187.289C92.7392 194.628 102.458 200.274 113.185 203.984C130.809 210.114 161.902 209.267 178.356 201.444C188.639 196.564 197.552 189.95 205.053 181.401C212.433 172.972 218.119 163.536 221.869 152.97C225.66 142.363 227.314 131.354 226.991 120.062C226.709 108.609 223.926 97.6799 219.006 87.3156C214.126 77.032 207.714 67.313 199.165 59.691C190.817 52.2303 181.34 46.5844 170.734 42.9145C133.874 30.2112 91.1664 45.5762 69.7119 77.8386C48.701 111.674 50.9594 154.542 80.2779 183.861Z" fill="white"  vector-effect="non-scaling-stroke"/>
<path fill-rule="evenodd" clip-rule="evenodd" d="M9.38125 20.2502C8.65535 20.5728 7.04223 21.339 6.47764 21.9843C5.42911 23.1941 4.58223 24.5249 4.01764 26.0171C3.37239 27.6302 3.09009 29.324 3.00944 31.0581C2.96911 31.905 3.04977 32.7518 3.41272 33.5181L39.9095 110.424C40.4741 101.874 45.8378 84.4926 49.7092 78.0805L24.8269 25.7348C24.1413 24.2426 23.1734 22.9925 21.9636 21.8633C20.9554 20.9357 19.8665 20.2502 18.576 19.8469C16.7613 19.242 14.9465 19 13.0108 19C12.0429 19 10.1878 19.8469 9.38125 20.2502Z" fill="white"/>
</svg>
